<svg width="326" height="128" viewBox="0 0 326 128" fill="none" xmlns="http://www.w3.org/2000/svg">
<mask id="mask0" style="mask-type:alpha" maskUnits="userSpaceOnUse" x="2" y="0" width="320" height="128">
<rect x="2.5" y="0.5" width="319" height="127" rx="15.5" fill="white" stroke="black"/>
</mask>
<g mask="url(#mask0)">
<rect x="2" width="352" height="128" rx="16" fill="#FFEDD7"/>
<path d="M19.568 36.448H24.912V30.528H29.264V36.448H34.608V40.448H29.264V46.368H24.912V40.448H19.568V36.448ZM38.4275 30.432C39.0462 30.176 39.6862 29.888 40.3475 29.568C41.0302 29.2267 41.6915 28.864 42.3315 28.48C42.9715 28.0747 43.5795 27.6587 44.1555 27.232C44.7528 26.784 45.2862 26.3147 45.7555 25.824H49.0835V48H44.3155V32.032C43.6755 32.4587 42.9608 32.8533 42.1715 33.216C41.3822 33.5573 40.6142 33.856 39.8675 34.112L38.4275 30.432ZM71.463 36.864C71.463 40.5973 70.7483 43.4667 69.319 45.472C67.911 47.456 65.959 48.448 63.463 48.448C60.967 48.448 59.0043 47.456 57.575 45.472C56.167 43.4667 55.463 40.5973 55.463 36.864C55.463 35.008 55.6443 33.3653 56.007 31.936C56.391 30.5067 56.935 29.3013 57.639 28.32C58.343 27.3387 59.1857 26.592 60.167 26.08C61.1483 25.568 62.247 25.312 63.463 25.312C65.959 25.312 67.911 26.3147 69.319 28.32C70.7483 30.304 71.463 33.152 71.463 36.864ZM66.599 36.864C66.599 35.7547 66.5457 34.752 66.439 33.856C66.3323 32.9387 66.1617 32.1493 65.927 31.488C65.6923 30.8267 65.3723 30.3147 64.967 29.952C64.5617 29.5893 64.0603 29.408 63.463 29.408C62.8657 29.408 62.3643 29.5893 61.959 29.952C61.575 30.3147 61.255 30.8267 60.999 31.488C60.7643 32.1493 60.5937 32.9387 60.487 33.856C60.3803 34.752 60.327 35.7547 60.327 36.864C60.327 37.9733 60.3803 38.9867 60.487 39.904C60.5937 40.8213 60.7643 41.6107 60.999 42.272C61.255 42.9333 61.575 43.4453 61.959 43.808C62.3643 44.1707 62.8657 44.352 63.463 44.352C64.0603 44.352 64.5617 44.1707 64.967 43.808C65.3723 43.4453 65.6923 42.9333 65.927 42.272C66.1617 41.6107 66.3323 40.8213 66.439 39.904C66.5457 38.9867 66.599 37.9733 66.599 36.864ZM89.6505 36.864C89.6505 40.5973 88.9358 43.4667 87.5065 45.472C86.0985 47.456 84.1465 48.448 81.6505 48.448C79.1545 48.448 77.1918 47.456 75.7625 45.472C74.3545 43.4667 73.6505 40.5973 73.6505 36.864C73.6505 35.008 73.8318 33.3653 74.1945 31.936C74.5785 30.5067 75.1225 29.3013 75.8265 28.32C76.5305 27.3387 77.3732 26.592 78.3545 26.08C79.3358 25.568 80.4345 25.312 81.6505 25.312C84.1465 25.312 86.0985 26.3147 87.5065 28.32C88.9358 30.304 89.6505 33.152 89.6505 36.864ZM84.7865 36.864C84.7865 35.7547 84.7332 34.752 84.6265 33.856C84.5198 32.9387 84.3492 32.1493 84.1145 31.488C83.8798 30.8267 83.5598 30.3147 83.1545 29.952C82.7492 29.5893 82.2478 29.408 81.6505 29.408C81.0532 29.408 80.5518 29.5893 80.1465 29.952C79.7625 30.3147 79.4425 30.8267 79.1865 31.488C78.9518 32.1493 78.7812 32.9387 78.6745 33.856C78.5678 34.752 78.5145 35.7547 78.5145 36.864C78.5145 37.9733 78.5678 38.9867 78.6745 39.904C78.7812 40.8213 78.9518 41.6107 79.1865 42.272C79.4425 42.9333 79.7625 43.4453 80.1465 43.808C80.5518 44.1707 81.0532 44.352 81.6505 44.352C82.2478 44.352 82.7492 44.1707 83.1545 43.808C83.5598 43.4453 83.8798 42.9333 84.1145 42.272C84.3492 41.6107 84.5198 40.8213 84.6265 39.904C84.7332 38.9867 84.7865 37.9733 84.7865 36.864ZM107.838 36.864C107.838 40.5973 107.123 43.4667 105.694 45.472C104.286 47.456 102.334 48.448 99.838 48.448C97.342 48.448 95.3793 47.456 93.95 45.472C92.542 43.4667 91.838 40.5973 91.838 36.864C91.838 35.008 92.0193 33.3653 92.382 31.936C92.766 30.5067 93.31 29.3013 94.014 28.32C94.718 27.3387 95.5607 26.592 96.542 26.08C97.5233 25.568 98.622 25.312 99.838 25.312C102.334 25.312 104.286 26.3147 105.694 28.32C107.123 30.304 107.838 33.152 107.838 36.864ZM102.974 36.864C102.974 35.7547 102.921 34.752 102.814 33.856C102.707 32.9387 102.537 32.1493 102.302 31.488C102.067 30.8267 101.747 30.3147 101.342 29.952C100.937 29.5893 100.435 29.408 99.838 29.408C99.2407 29.408 98.7393 29.5893 98.334 29.952C97.95 30.3147 97.63 30.8267 97.374 31.488C97.1393 32.1493 96.9687 32.9387 96.862 33.856C96.7553 34.752 96.702 35.7547 96.702 36.864C96.702 37.9733 96.7553 38.9867 96.862 39.904C96.9687 40.8213 97.1393 41.6107 97.374 42.272C97.63 42.9333 97.95 43.4453 98.334 43.808C98.7393 44.1707 99.2407 44.352 99.838 44.352C100.435 44.352 100.937 44.1707 101.342 43.808C101.747 43.4453 102.067 42.9333 102.302 42.272C102.537 41.6107 102.707 40.8213 102.814 39.904C102.921 38.9867 102.974 37.9733 102.974 36.864ZM121.386 31.52C121.386 33.5253 120.874 35.0613 119.85 36.128C118.826 37.1947 117.45 37.728 115.722 37.728C113.994 37.728 112.618 37.1947 111.594 36.128C110.57 35.0613 110.058 33.5253 110.058 31.52C110.058 29.5147 110.57 27.9787 111.594 26.912C112.618 25.8453 113.994 25.312 115.722 25.312C117.45 25.312 118.826 25.8453 119.85 26.912C120.874 27.9787 121.386 29.5147 121.386 31.52ZM117.77 31.52C117.77 30.432 117.578 29.6427 117.194 29.152C116.81 28.6613 116.319 28.416 115.722 28.416C115.103 28.416 114.602 28.6613 114.218 29.152C113.855 29.6427 113.674 30.432 113.674 31.52C113.674 32.608 113.855 33.408 114.218 33.92C114.602 34.4107 115.103 34.656 115.722 34.656C116.319 34.656 116.81 34.4107 117.194 33.92C117.578 33.408 117.77 32.608 117.77 31.52ZM127.626 25.824H132.074L119.562 48H115.114L127.626 25.824ZM137.194 42.304C137.194 44.3093 136.682 45.8453 135.658 46.912C134.634 47.9787 133.258 48.512 131.53 48.512C129.802 48.512 128.426 47.9787 127.402 46.912C126.378 45.8453 125.866 44.3093 125.866 42.304C125.866 40.2987 126.378 38.7627 127.402 37.696C128.426 36.6293 129.802 36.096 131.53 36.096C133.258 36.096 134.634 36.6293 135.658 37.696C136.682 38.7627 137.194 40.2987 137.194 42.304ZM133.578 42.304C133.578 41.216 133.386 40.4267 133.002 39.936C132.618 39.4453 132.127 39.2 131.53 39.2C130.911 39.2 130.41 39.4453 130.026 39.936C129.663 40.4267 129.482 41.216 129.482 42.304C129.482 43.392 129.663 44.192 130.026 44.704C130.41 45.1947 130.911 45.44 131.53 45.44C132.127 45.44 132.618 45.1947 133.002 44.704C133.386 44.192 133.578 43.392 133.578 42.304Z" fill="#43D200"/>
<path d="M322 53.2028L321.388 51.8662C320.057 48.9605 315.909 49.0175 314.659 51.9587V51.9587C314.305 52.7915 313.656 53.4645 312.837 53.8492L311.755 54.3573C309.976 55.1928 307.853 54.6118 306.747 52.9866L305.513 51.1717C303.907 48.8111 300.416 48.8447 298.856 51.2356L298.211 52.2227C296.765 54.4392 293.603 54.6651 291.857 52.6768L289.161 49.608C288.834 49.236 288.579 48.8067 288.409 48.3417L284.691 38.1747C283.569 35.1077 279.444 34.6045 277.618 37.312L275.333 40.7006L268.819 51.1798C268.717 51.3442 268.627 51.5159 268.55 51.6933L262.178 66.3134C262.059 66.587 261.971 66.873 261.915 67.1662L255.453 101.247C255.373 101.669 255.226 102.075 255.017 102.449L253.078 105.928C251.386 108.965 246.893 108.546 245.791 105.249L241.999 93.9066L238.493 85.9365C237.204 83.0058 233.165 82.702 231.452 85.4069L229.687 88.1938C229.041 89.2144 227.968 89.8883 226.768 90.0272L223.459 90.4101C222.516 90.5192 221.565 90.2895 220.776 89.7622L217.56 87.6128C216.212 86.7115 214.453 86.7137 213.106 87.6183L211.682 88.5754C209.971 89.7252 207.666 89.3863 206.359 87.7926L205.929 87.2687C204.086 85.0226 200.539 85.4285 199.251 88.033L197.045 92.4941C196.089 94.4271 193.773 95.2545 191.809 94.3648L189.827 93.4672C189.071 93.1245 188.44 92.5547 188.022 91.837L184.276 85.4077C183.066 83.3299 180.309 82.782 178.396 84.2391L175.649 86.3317C175.437 86.4929 175.21 86.6326 174.971 86.7487L170.781 88.7809C169.474 89.4146 167.927 89.2904 166.738 88.4564L165.474 87.5698C163.589 86.2469 160.978 86.7859 159.771 88.7474L156.222 94.5127C155.652 95.4377 154.731 96.0914 153.67 96.3234L149.258 97.2884C148.864 97.3745 148.459 97.4007 148.058 97.3659L141.997 96.8414L136.509 96.2155C135.74 96.1277 134.961 96.2653 134.268 96.6115L130.43 98.529C129.316 99.0854 128.007 99.0915 126.888 98.5456L121.204 95.7719C119.401 94.8924 117.226 95.4838 116.117 97.1549L113.208 101.538C112.15 103.131 110.113 103.753 108.346 103.023L104.99 101.635C104.284 101.342 103.676 100.854 103.239 100.227L101.126 97.2004C99.5942 95.0051 96.38 94.905 94.7144 97.0008L91.6171 100.898C91.4643 101.09 91.2941 101.268 91.1088 101.429L89.0141 103.249C86.9235 105.065 83.6644 104.259 82.6621 101.677L82.5366 101.354C81.3273 98.2395 77.0588 97.8923 75.3621 100.77L73.6584 103.66C73.4164 104.07 73.1031 104.434 72.7331 104.735L70.2756 106.729C68.3165 108.318 65.3929 107.72 64.2166 105.488L63.2137 103.585C61.7434 100.796 57.774 100.725 56.2053 103.46L53.4987 108.18C53.2721 108.575 52.9796 108.929 52.6338 109.225L46.7245 114.297C46.568 114.431 46.4222 114.577 46.2882 114.734L42.9745 118.613C42.3433 119.351 41.4646 119.835 40.5027 119.974L36.107 120.606C35.1683 120.741 34.2123 120.538 33.4094 120.033L29.1796 117.376C28.8362 117.16 28.4621 116.998 28.07 116.894L22.4076 115.404C22.1332 115.331 21.8672 115.23 21.6142 115.101L16.8318 112.671C15.8703 112.183 14.7522 112.103 13.7312 112.451L8.51366 114.226C7.98655 114.406 7.5027 114.693 7.09306 115.07L2 119.759" stroke="url(#paint0_linear)" stroke-width="4" stroke-linecap="round" stroke-linejoin="round"/>
</g>
<defs>
<linearGradient id="paint0_linear" x1="152.909" y1="78.9357" x2="160.559" y2="110.567" gradientUnits="userSpaceOnUse">
<stop stop-color="#43D200"/>
<stop offset="1" stop-color="#F44752"/>
</linearGradient>
</defs>
</svg>
