<svg width="119" height="48" viewBox="0 0 119 48" fill="none" xmlns="http://www.w3.org/2000/svg">
<path d="M65.487 12.8709C66.19 13.0929 66.7407 13.4668 67.1391 13.9926C67.5375 14.5067 67.7367 15.1435 67.7367 15.903C67.7367 16.978 67.3148 17.8076 66.4712 18.3919C65.6393 18.9644 64.4207 19.2507 62.8155 19.2507H56.453V6.98182H62.4639C63.9637 6.98182 65.112 7.26809 65.9088 7.84064C66.7173 8.41319 67.1215 9.19021 67.1215 10.1717C67.1215 10.7676 66.975 11.2993 66.6821 11.7667C66.4009 12.2341 66.0025 12.6021 65.487 12.8709ZM59.2827 9.12011V12.0121H62.1124C62.8155 12.0121 63.3486 11.8894 63.7118 11.644C64.075 11.3986 64.2567 11.0364 64.2567 10.5573C64.2567 10.0782 64.075 9.72186 63.7118 9.48817C63.3486 9.24279 62.8155 9.12011 62.1124 9.12011H59.2827ZM62.6045 17.1124C63.3544 17.1124 63.9169 16.9897 64.2918 16.7443C64.6785 16.499 64.8718 16.1192 64.8718 15.6051C64.8718 14.5885 64.1161 14.0802 62.6045 14.0802H59.2827V17.1124H62.6045Z" fill="#FFF6EB"/>
<path d="M74.1984 19.3909C73.2024 19.3909 72.306 19.1864 71.5093 18.7775C70.7242 18.3568 70.1091 17.7784 69.6638 17.0423C69.2186 16.3062 68.9959 15.4707 68.9959 14.5359C68.9959 13.6012 69.2186 12.7657 69.6638 12.0296C70.1091 11.2934 70.7242 10.7209 71.5093 10.3119C72.306 9.89129 73.2024 9.68097 74.1984 9.68097C75.1943 9.68097 76.0848 9.89129 76.8699 10.3119C77.6549 10.7209 78.2701 11.2934 78.7153 12.0296C79.1606 12.7657 79.3832 13.6012 79.3832 14.5359C79.3832 15.4707 79.1606 16.3062 78.7153 17.0423C78.2701 17.7784 77.6549 18.3568 76.8699 18.7775C76.0848 19.1864 75.1943 19.3909 74.1984 19.3909ZM74.1984 17.1474C74.9014 17.1474 75.4755 16.9138 75.9208 16.4464C76.3778 15.9673 76.6063 15.3305 76.6063 14.5359C76.6063 13.7414 76.3778 13.1104 75.9208 12.643C75.4755 12.164 74.9014 11.9244 74.1984 11.9244C73.4953 11.9244 72.9153 12.164 72.4584 12.643C72.0014 13.1104 71.7729 13.7414 71.7729 14.5359C71.7729 15.3305 72.0014 15.9673 72.4584 16.4464C72.9153 16.9138 73.4953 17.1474 74.1984 17.1474Z" fill="#FFF6EB"/>
<path d="M85.7856 19.3909C84.7779 19.3909 83.8699 19.1864 83.0614 18.7775C82.2646 18.3568 81.6377 17.7784 81.1808 17.0423C80.7355 16.3062 80.5129 15.4707 80.5129 14.5359C80.5129 13.6012 80.7355 12.7657 81.1808 12.0296C81.6377 11.2934 82.2646 10.7209 83.0614 10.3119C83.8699 9.89129 84.7779 9.68097 85.7856 9.68097C86.7816 9.68097 87.6486 9.89129 88.3868 10.3119C89.1367 10.7209 89.6816 11.311 90.0214 12.0822L87.8947 13.2214C87.4026 12.3567 86.6937 11.9244 85.768 11.9244C85.0533 11.9244 84.4616 12.1581 83.9929 12.6255C83.5242 13.0929 83.2899 13.7297 83.2899 14.5359C83.2899 15.3422 83.5242 15.979 83.9929 16.4464C84.4616 16.9138 85.0533 17.1474 85.768 17.1474C86.7054 17.1474 87.4143 16.7151 87.8947 15.8505L90.0214 17.0072C89.6816 17.755 89.1367 18.3393 88.3868 18.7599C87.6486 19.1806 86.7816 19.3909 85.7856 19.3909Z" fill="#FFF6EB"/>
<path d="M95.9793 19.3909C94.9833 19.3909 94.087 19.1864 93.2902 18.7775C92.5051 18.3568 91.89 17.7784 91.4447 17.0423C90.9995 16.3062 90.7769 15.4707 90.7769 14.5359C90.7769 13.6012 90.9995 12.7657 91.4447 12.0296C91.89 11.2934 92.5051 10.7209 93.2902 10.3119C94.087 9.89129 94.9833 9.68097 95.9793 9.68097C96.9752 9.68097 97.8657 9.89129 98.6508 10.3119C99.4358 10.7209 100.051 11.2934 100.496 12.0296C100.942 12.7657 101.164 13.6012 101.164 14.5359C101.164 15.4707 100.942 16.3062 100.496 17.0423C100.051 17.7784 99.4358 18.3568 98.6508 18.7775C97.8657 19.1864 96.9752 19.3909 95.9793 19.3909ZM95.9793 17.1474C96.6823 17.1474 97.2565 16.9138 97.7017 16.4464C98.1587 15.9673 98.3872 15.3305 98.3872 14.5359C98.3872 13.7414 98.1587 13.1104 97.7017 12.643C97.2565 12.164 96.6823 11.9244 95.9793 11.9244C95.2762 11.9244 94.6963 12.164 94.2393 12.643C93.7823 13.1104 93.5538 13.7414 93.5538 14.5359C93.5538 15.3305 93.7823 15.9673 94.2393 16.4464C94.6963 16.9138 95.2762 17.1474 95.9793 17.1474Z" fill="#FFF6EB"/>
<path d="M109.096 18.795C108.826 18.9936 108.492 19.1455 108.094 19.2507C107.707 19.3442 107.297 19.3909 106.863 19.3909C105.739 19.3909 104.866 19.1046 104.245 18.5321C103.635 17.9595 103.331 17.1182 103.331 16.0082V12.1347H101.872V10.0315H103.331V7.73548H106.073V10.0315H108.428V12.1347H106.073V15.9731C106.073 16.3704 106.172 16.6801 106.371 16.9021C106.582 17.1124 106.875 17.2176 107.25 17.2176C107.684 17.2176 108.053 17.1007 108.357 16.867L109.096 18.795Z" fill="#FFF6EB"/>
<path d="M114.449 9.68097C115.913 9.68097 117.038 10.0315 117.823 10.7326C118.608 11.422 119.001 12.4678 119.001 13.8699V19.2507H116.435V18.0764C115.919 18.9527 114.958 19.3909 113.552 19.3909C112.826 19.3909 112.193 19.2682 111.654 19.0228C111.127 18.7775 110.723 18.4386 110.441 18.0063C110.16 17.5739 110.02 17.0832 110.02 16.534C110.02 15.6577 110.348 14.9683 111.004 14.4658C111.672 13.9634 112.697 13.7122 114.08 13.7122H116.259C116.259 13.1162 116.077 12.6605 115.714 12.3451C115.351 12.0179 114.806 11.8543 114.08 11.8543C113.576 11.8543 113.078 11.9361 112.586 12.0997C112.105 12.2516 111.695 12.4619 111.355 12.7307L110.371 10.8202C110.887 10.458 111.502 10.1776 112.217 9.97893C112.943 9.78029 113.687 9.68097 114.449 9.68097ZM114.238 17.5506C114.706 17.5506 115.122 17.4454 115.486 17.2351C115.849 17.0131 116.107 16.6917 116.259 16.2711V15.3071H114.378C113.254 15.3071 112.691 15.6752 112.691 16.4113C112.691 16.7619 112.826 17.0423 113.095 17.2526C113.377 17.4512 113.757 17.5506 114.238 17.5506Z" fill="#FFF6EB"/>
<path d="M62.3409 40.8828C61.0872 40.8828 59.9506 40.6141 58.9312 40.0766C57.9235 39.5274 57.1268 38.7737 56.5409 37.8156C55.9668 36.8458 55.6797 35.7533 55.6797 34.5381C55.6797 33.3229 55.9668 32.2362 56.5409 31.2781C57.1268 30.3082 57.9235 29.5546 58.9312 29.0171C59.9506 28.4679 61.093 28.1933 62.3585 28.1933C63.4247 28.1933 64.3856 28.3803 65.2409 28.7542C66.108 29.1281 66.8344 29.6656 67.4203 30.3667L65.5924 32.0492C64.7605 31.0911 63.7294 30.612 62.4991 30.612C61.7375 30.612 61.0579 30.7815 60.4603 31.1203C59.8627 31.4475 59.394 31.909 59.0542 32.5049C58.7262 33.1009 58.5621 33.7786 58.5621 34.5381C58.5621 35.2976 58.7262 35.9753 59.0542 36.5712C59.394 37.1671 59.8627 37.6345 60.4603 37.9733C61.0579 38.3005 61.7375 38.4641 62.4991 38.4641C63.7294 38.4641 64.7605 37.9792 65.5924 37.0094L67.4203 38.692C66.8344 39.4047 66.108 39.9481 65.2409 40.322C64.3738 40.6959 63.4072 40.8828 62.3409 40.8828Z" fill="#FFF6EB"/>
<path d="M72.895 31.1028C74.3597 31.1028 75.4845 31.4533 76.2696 32.1544C77.0546 32.8438 77.4471 33.8896 77.4471 35.2917V40.6725H74.8811V39.4982C74.3655 40.3745 73.4047 40.8127 71.9987 40.8127C71.2722 40.8127 70.6395 40.69 70.1005 40.4446C69.5732 40.1993 69.169 39.8604 68.8877 39.4281C68.6065 38.9958 68.4659 38.505 68.4659 37.9558C68.4659 37.0795 68.794 36.3901 69.4502 35.8876C70.118 35.3852 71.1433 35.134 72.5259 35.134H74.7053C74.7053 34.5381 74.5237 34.0824 74.1605 33.7669C73.7972 33.4397 73.2524 33.2761 72.5259 33.2761C72.0221 33.2761 71.5241 33.3579 71.032 33.5215C70.5516 33.6734 70.1415 33.8837 69.8017 34.1525L68.8174 32.242C69.333 31.8798 69.9481 31.5994 70.6629 31.4007C71.3894 31.2021 72.1334 31.1028 72.895 31.1028ZM72.6841 38.9724C73.1528 38.9724 73.5688 38.8672 73.932 38.6569C74.2952 38.4349 74.553 38.1136 74.7053 37.6929V36.7289H72.8247C71.6999 36.7289 71.1374 37.097 71.1374 37.8331C71.1374 38.1837 71.2722 38.4641 71.5417 38.6744C71.8229 38.8731 72.2037 38.9724 72.6841 38.9724Z" fill="#FFF6EB"/>
<path d="M85.5177 31.1028C86.3965 31.1028 87.1933 31.3073 87.908 31.7162C88.6345 32.1135 89.2028 32.6802 89.6129 33.4163C90.023 34.1408 90.228 34.9879 90.228 35.9578C90.228 36.9276 90.023 37.7806 89.6129 38.5167C89.2028 39.2411 88.6345 39.8078 87.908 40.2168C87.1933 40.6141 86.3965 40.8127 85.5177 40.8127C84.3108 40.8127 83.3618 40.433 82.6704 39.6735V44.0727H79.9286V31.243H82.5474V32.3297C83.227 31.5117 84.2171 31.1028 85.5177 31.1028ZM85.0432 38.5693C85.7462 38.5693 86.3203 38.3356 86.7656 37.8682C87.2226 37.3891 87.451 36.7523 87.451 35.9578C87.451 35.1632 87.2226 34.5322 86.7656 34.0648C86.3203 33.5858 85.7462 33.3462 85.0432 33.3462C84.3401 33.3462 83.7601 33.5858 83.3032 34.0648C82.8579 34.5322 82.6353 35.1632 82.6353 35.9578C82.6353 36.7523 82.8579 37.3891 83.3032 37.8682C83.7601 38.3356 84.3401 38.5693 85.0432 38.5693Z" fill="#FFF6EB"/>
<path d="M92.0635 31.243H94.8053V40.6725H92.0635V31.243ZM93.4344 29.9285C92.9305 29.9285 92.5204 29.7824 92.2041 29.4903C91.8877 29.1982 91.7295 28.836 91.7295 28.4036C91.7295 27.9713 91.8877 27.6091 92.2041 27.317C92.5204 27.0249 92.9305 26.8788 93.4344 26.8788C93.9382 26.8788 94.3483 27.019 94.6647 27.2994C94.981 27.5799 95.1392 27.9304 95.1392 28.3511C95.1392 28.8068 94.981 29.1865 94.6647 29.4903C94.3483 29.7824 93.9382 29.9285 93.4344 29.9285Z" fill="#FFF6EB"/>
<path d="M103.449 40.2168C103.179 40.4154 102.845 40.5673 102.447 40.6725C102.06 40.766 101.65 40.8127 101.217 40.8127C100.092 40.8127 99.2188 40.5264 98.5978 39.9539C97.9885 39.3813 97.6839 38.5401 97.6839 37.43V33.5566H96.2251V31.4533H97.6839V29.1573H100.426V31.4533H102.781V33.5566H100.426V37.395C100.426 37.7922 100.525 38.1019 100.724 38.3239C100.935 38.5342 101.228 38.6394 101.603 38.6394C102.037 38.6394 102.406 38.5225 102.711 38.2888L103.449 40.2168Z" fill="#FFF6EB"/>
<path d="M108.802 31.1028C110.266 31.1028 111.391 31.4533 112.176 32.1544C112.961 32.8438 113.354 33.8896 113.354 35.2917V40.6725H110.788V39.4982C110.272 40.3745 109.311 40.8127 107.905 40.8127C107.179 40.8127 106.546 40.69 106.007 40.4446C105.48 40.1993 105.076 39.8604 104.794 39.4281C104.513 38.9958 104.373 38.505 104.373 37.9558C104.373 37.0795 104.701 36.3901 105.357 35.8876C106.025 35.3852 107.05 35.134 108.433 35.134H110.612C110.612 34.5381 110.43 34.0824 110.067 33.7669C109.704 33.4397 109.159 33.2761 108.433 33.2761C107.929 33.2761 107.431 33.3579 106.939 33.5215C106.458 33.6734 106.048 33.8837 105.708 34.1525L104.724 32.242C105.24 31.8798 105.855 31.5994 106.57 31.4007C107.296 31.2021 108.04 31.1028 108.802 31.1028ZM108.591 38.9724C109.06 38.9724 109.476 38.8672 109.839 38.6569C110.202 38.4349 110.46 38.1136 110.612 37.6929V36.7289H108.731C107.607 36.7289 107.044 37.097 107.044 37.8331C107.044 38.1837 107.179 38.4641 107.448 38.6744C107.73 38.8731 108.11 38.9724 108.591 38.9724Z" fill="#FFF6EB"/>
<path d="M115.835 27.6675H118.577V40.6725H115.835V27.6675Z" fill="#FFF6EB"/>
<g clip-path="url(#clip0)">
<path d="M35.0493 17.5994L31.1925 17.6367L27.3311 17.6739C27.1479 17.6739 26.4641 17.7068 26.2831 17.72C26.1021 17.7331 25.4272 17.7989 25.2507 17.823C24.9088 17.869 24.5669 17.926 24.2295 17.9874C24.053 18.0203 23.3916 18.1628 23.2195 18.2066C20.5733 18.9001 18.1001 20.1183 15.9526 21.7861C15.689 21.9921 15.423 22.1938 15.1661 22.4086C14.9091 22.6234 14.6566 22.847 14.4108 23.0662C14.165 23.2854 13.9192 23.5046 13.6845 23.7435C13.5728 23.8509 13.1058 24.32 12.9985 24.4318C12.7751 24.651 12.5717 24.8702 12.346 25.0653C12.1203 25.2604 11.8857 25.4818 11.6466 25.6791C11.1684 26.0736 10.6679 26.4462 10.1517 26.7926C9.11205 27.4787 8.00122 28.0547 6.83781 28.5111C5.67706 28.962 4.47337 29.2983 3.24461 29.515C2.93847 29.5676 2.63233 29.6224 2.32396 29.6553C2.01559 29.6882 1.70498 29.732 1.39214 29.7518C1.02567 29.7824 0.663669 29.8 0.294964 29.8087C0.217271 29.8104 0.143234 29.8414 0.0882836 29.8953C0.033333 29.9493 0.00170815 30.0219 0 30.0981L0 30.6176C0.00233996 30.6963 0.0363117 30.7709 0.0945022 30.8251C0.152693 30.8793 0.230378 30.9087 0.310606 30.9069C1.36032 30.8772 2.40617 30.7688 3.43901 30.5825C4.73868 30.3447 6.01115 29.9813 7.23779 29.4975C8.47019 29.0165 9.65439 28.4244 10.7751 27.7286C11.3382 27.3837 11.8827 27.0125 12.4086 26.615C12.6745 26.4221 12.9293 26.2117 13.1862 26.0057C13.4432 25.7996 13.6845 25.5673 13.9304 25.3481C14.051 25.2407 14.5247 24.8351 14.6387 24.7365C14.8622 24.5326 15.1236 24.3551 15.365 24.1666C15.8579 23.8017 16.372 23.465 16.9046 23.1583C17.9696 22.5565 19.097 22.0678 20.2676 21.7006C21.4133 21.3393 22.5886 21.0753 23.7804 20.9115C23.9323 20.8918 24.5155 20.8172 24.6742 20.8019C24.9714 20.7756 25.2686 20.7559 25.568 20.7296C25.7222 20.7296 26.3054 20.6923 26.4619 20.6901C26.6183 20.6879 27.197 20.6901 27.3557 20.6901L31.2126 20.7252L35.0672 20.7624C36.3543 20.7756 37.6414 20.7836 38.9286 20.7866C39.5788 20.7866 41.333 20.7866 43.029 20.7997C43.0719 20.7983 43.1139 20.788 43.1525 20.7695C43.191 20.751 43.2251 20.7247 43.2525 20.6923C43.3139 20.6206 43.3796 20.5526 43.4491 20.4884C44.2493 19.7661 44.928 18.9242 45.4602 17.994C45.4848 17.9489 45.497 17.8983 45.4959 17.8472C45.4948 17.7961 45.4803 17.7462 45.4538 17.7022C45.4274 17.6581 45.3898 17.6215 45.3447 17.5959C45.2997 17.5702 45.2486 17.5563 45.1965 17.5556L38.9219 17.5753C37.6288 17.5768 36.3379 17.5848 35.0493 17.5994Z" fill="#FFF6EB"/>
<path d="M40.5375 28.3752L36.5018 28.4147L32.4617 28.4563C32.207 28.4563 31.617 28.487 31.3623 28.5045C31.1075 28.5221 30.531 28.5812 30.283 28.6141C29.9255 28.6623 29.5679 28.7215 29.2149 28.7873C28.9691 28.8355 28.4015 28.9583 28.1601 29.0218C25.3943 29.7556 22.812 31.0397 20.5737 32.7942C20.2989 33.0134 20.0196 33.2217 19.7537 33.4518C19.4877 33.682 19.2218 33.8902 18.9671 34.1357C18.7123 34.3812 18.4554 34.6004 18.2118 34.8437C18.1358 34.9161 17.5638 35.5013 17.4923 35.5649C17.2688 35.7841 17.0453 36.0208 16.804 36.2356C16.5627 36.4505 16.3258 36.674 16.0755 36.8779C15.5728 37.29 15.0521 37.6802 14.5113 38.0418C13.4217 38.7614 12.2569 39.3647 11.0366 39.8414C9.82035 40.3111 8.55992 40.662 7.27355 40.8892C6.95177 40.944 6.62999 41.0032 6.30597 41.0361C5.98196 41.069 5.65795 41.1172 5.32947 41.1369C4.67473 41.1917 4.02894 41.2027 3.35857 41.2027H0.301668C0.223015 41.2021 0.147282 41.2319 0.0908346 41.2856C0.0343872 41.3393 0.00175859 41.4127 0 41.4898L0 42.0181C0.0023254 42.095 0.0351318 42.1681 0.0914555 42.2217C0.147779 42.2753 0.223185 42.3053 0.301668 42.3052H3.35187C4.73218 42.3155 6.11038 42.1973 7.46795 41.9523C8.82394 41.7027 10.1517 41.3231 11.4321 40.8191C12.7183 40.3141 13.9547 39.6949 15.1258 38.969C15.7135 38.6096 16.2811 38.2194 16.8331 37.8051C17.1102 37.6034 17.3738 37.382 17.6442 37.1694C17.9146 36.9568 18.1649 36.7201 18.4241 36.4921C18.5045 36.4198 19.0945 35.9178 19.166 35.8499C19.4073 35.6307 19.6732 35.4531 19.928 35.2558C20.4457 34.8742 20.9859 34.5229 21.5458 34.2037C22.6608 33.5755 23.8415 33.0669 25.0675 32.6868C26.267 32.3144 27.4968 32.0431 28.7434 31.8758C28.9668 31.8473 29.4584 31.7859 29.6729 31.764C29.9835 31.7355 30.2942 31.7136 30.6025 31.6895C30.826 31.6785 31.3176 31.6544 31.5321 31.65C31.7466 31.6456 32.2472 31.65 32.4595 31.65L36.4951 31.6895L40.5285 31.7289C41.8693 31.7435 43.216 31.753 44.5686 31.7574H47.4512C47.4958 31.7579 47.54 31.7486 47.5805 31.7303C47.621 31.712 47.6569 31.6851 47.6855 31.6515C47.7141 31.618 47.7348 31.5786 47.7461 31.5363C47.7574 31.494 47.7589 31.4497 47.7507 31.4067C47.5584 30.4049 47.2409 29.4301 46.8054 28.5045C46.7805 28.4527 46.741 28.409 46.6914 28.3787C46.6419 28.3484 46.5845 28.3327 46.5261 28.3336H44.5686C43.2264 28.3467 41.8827 28.3606 40.5375 28.3752Z" fill="#FFF6EB"/>
<path d="M2.08041 5.26076C2.5958 4.94969 3.09475 4.61315 3.57535 4.25244C3.81668 4.0727 4.05131 3.88638 4.28147 3.69349C4.51163 3.50059 4.72839 3.30332 4.95185 3.09946C5.1753 2.89561 5.39876 2.70929 5.59093 2.54489C5.78311 2.38049 6.03338 2.19198 6.24343 2.02539C6.68828 1.68983 7.15234 1.37952 7.63334 1.09599C7.96852 0.901635 8.30967 0.720431 8.65677 0.552379C8.71334 0.52064 8.75791 0.471785 8.78381 0.413127C8.80971 0.354469 8.81555 0.289161 8.80045 0.226975C8.78536 0.16479 8.75014 0.109071 8.70008 0.0681554C8.65001 0.0272402 8.58778 0.00332905 8.5227 0L6.73504 0C6.52617 0.00115148 6.32382 0.0714362 6.16075 0.19947L5.98869 0.335373C5.76523 0.528267 5.52166 0.725546 5.29597 0.927208C5.07028 1.12887 4.84906 1.33272 4.6256 1.54096C4.40214 1.7492 4.17868 1.97936 4.00215 2.16129C3.82562 2.34323 3.6178 2.5427 3.41669 2.72682C3.21558 2.91095 3.00553 3.10165 2.78878 3.28797C2.35426 3.64765 1.90156 3.98565 1.43239 4.30067C1.01825 4.56809 0.592931 4.81871 0.156444 5.05252C0.10887 5.07762 0.0691689 5.11496 0.0416088 5.16053C0.0140487 5.2061 -0.000328277 5.25818 2.34818e-05 5.31117V5.91835C-0.000634364 5.97007 0.0125405 6.02106 0.0382345 6.06623C0.0639285 6.1114 0.101244 6.14918 0.146461 6.17579C0.191678 6.2024 0.243217 6.21692 0.295939 6.21791C0.348661 6.21889 0.400724 6.2063 0.446939 6.18139C1.0075 5.9028 1.55275 5.5955 2.08041 5.26076Z" fill="#FFF6EB"/>
<path d="M46.0323 39.151L41.8179 39.1948L37.6013 39.2387C37.2728 39.2387 36.7767 39.265 36.4482 39.2913C36.1197 39.3176 35.6415 39.3636 35.3309 39.4074C34.9578 39.4579 34.5846 39.5192 34.2136 39.5894C33.8986 39.6507 33.4226 39.756 33.1142 39.8349C30.1825 40.5823 27.5077 42.0269 25.2061 43.8002C24.9223 44.0303 24.6318 44.2386 24.3547 44.4819C24.0776 44.7252 23.8005 44.9488 23.5368 45.1965C23.2732 45.4442 23.0028 45.6831 22.7503 45.9374C22.7123 45.9724 22.0352 46.6541 21.9995 46.6914C21.7604 46.9259 21.5302 47.1714 21.2777 47.395L21.1771 47.4849C21.132 47.5251 21.1003 47.5777 21.0862 47.6359C21.0722 47.6942 21.0765 47.7552 21.0985 47.8109C21.1205 47.8667 21.1592 47.9146 21.2096 47.9484C21.2599 47.9821 21.3195 48.0001 21.3805 48H22.3994C22.474 48.0007 22.5461 47.9732 22.6006 47.9233L22.938 47.6274L23.7134 46.9588C23.9659 46.7396 24.2452 46.5445 24.5111 46.3385C25.0532 45.9407 25.6188 45.5747 26.2049 45.2425C27.3723 44.587 28.6094 44.0592 29.8942 43.6686C31.1478 43.2857 32.432 43.0071 33.7332 42.8357C34.0103 42.8006 34.4282 42.7502 34.7053 42.7239C35.027 42.6932 35.351 42.6691 35.6751 42.6494C35.9499 42.6318 36.3678 42.6143 36.6449 42.6077C36.922 42.6012 37.3376 42.6077 37.6124 42.6077L41.8246 42.6516L45.1139 42.6844C45.1571 42.6835 45.1995 42.6732 45.2382 42.6542C45.2768 42.6353 45.3107 42.6082 45.3374 42.5748C46.078 41.6617 46.6725 40.6431 47.1004 39.5543C47.1192 39.5092 47.1263 39.4602 47.1212 39.4118C47.116 39.3633 47.0987 39.3169 47.0709 39.2765C47.043 39.2362 47.0055 39.2032 46.9615 39.1806C46.9175 39.1579 46.8686 39.1462 46.8189 39.1466L46.0323 39.151Z" fill="#FFF6EB"/>
<path d="M37.7934 22.9873L33.8472 23.0268L29.8964 23.064C29.673 23.064 29.0406 23.0969 28.8216 23.1122C28.6026 23.1276 27.9792 23.189 27.7669 23.2197C27.4161 23.2657 27.0675 23.3227 26.7211 23.3884C26.5111 23.4279 25.8965 23.5616 25.691 23.6076C22.984 24.323 20.4558 25.5764 18.2632 27.2902C17.9951 27.5094 17.7202 27.7066 17.461 27.928C17.2018 28.1494 16.9381 28.3664 16.6879 28.5856C16.4376 28.8048 16.1873 29.0416 15.9482 29.2783C15.8544 29.3704 15.3359 29.892 15.2466 29.9841C15.0231 30.2033 14.7996 30.4225 14.5762 30.6417C14.3527 30.8609 14.1069 31.0691 13.8611 31.2708C13.3725 31.6741 12.8623 32.0541 12.3304 32.4106C11.266 33.1122 10.1281 33.7001 8.93611 34.1642C7.74839 34.6245 6.51707 34.9681 5.26023 35.1901C4.94515 35.2427 4.63231 35.2997 4.315 35.3347C3.99769 35.3698 3.68038 35.4136 3.36084 35.4334C2.72175 35.486 2.08713 35.4969 1.4324 35.4991H0.301701C0.261707 35.4991 0.22211 35.5069 0.185216 35.5221C0.148322 35.5372 0.114865 35.5594 0.0867938 35.5873C0.0587222 35.6153 0.0365954 35.6484 0.0217007 35.6848C0.00680594 35.7212 -0.000559402 35.7602 3.31092e-05 35.7994V36.3233C3.31092e-05 36.4018 0.0318159 36.4771 0.0883896 36.5326C0.144963 36.5881 0.221694 36.6192 0.301701 36.6192H1.4324C2.78126 36.628 4.12796 36.512 5.45464 36.2729C6.78266 36.03 8.08284 35.6585 9.3361 35.1638C10.5985 34.6719 11.8119 34.0665 12.9606 33.3554C13.5341 33.0032 14.0905 32.624 14.6298 32.2177C14.9024 32.0183 15.1594 31.8034 15.4231 31.593C15.6868 31.3826 15.9348 31.1546 16.1873 30.9354C16.2856 30.8477 16.8175 30.3918 16.9113 30.3107C17.1482 30.1025 17.4074 29.9205 17.6554 29.7276C18.161 29.3542 18.6885 29.0101 19.2353 28.6974C20.3236 28.0822 21.4757 27.5825 22.6721 27.2069C23.8451 26.8401 25.0479 26.5724 26.2675 26.4068C26.4507 26.3827 26.9915 26.3147 27.177 26.2972C27.4786 26.2687 27.7825 26.2468 28.0864 26.2227C28.2697 26.2227 28.8104 26.1876 28.9937 26.1832C29.1769 26.1788 29.7199 26.1832 29.9031 26.1832L33.8494 26.2205L37.7934 26.2577C39.1096 26.2731 40.428 26.284 41.7442 26.284H44.7787C44.836 26.2825 44.8917 26.2652 44.9394 26.2339C44.987 26.2027 45.0247 26.1589 45.0481 26.1076C45.0714 26.0562 45.0795 25.9995 45.0714 25.9438C45.0633 25.8882 45.0393 25.8359 45.0022 25.793C44.5571 25.2957 44.0681 24.838 43.5408 24.4252C43.1262 24.1037 42.8234 23.6642 42.6738 23.167C42.6565 23.1039 42.6184 23.0482 42.5654 23.0085C42.5125 22.9689 42.4476 22.9476 42.381 22.9478H41.7419C40.4258 22.9632 39.1051 22.9742 37.7934 22.9873Z" fill="#FFF6EB"/>
<path d="M8.28582 5.85478C8.04448 6.05206 7.80762 6.25372 7.57522 6.45977C7.35176 6.67896 7.1283 6.87624 6.90485 7.08886C6.73502 7.25326 6.42665 7.56014 6.26576 7.72673C6.06912 7.9262 5.868 8.12129 5.66242 8.3098C5.45684 8.49831 5.23338 8.69559 5.00993 8.87971C4.56301 9.24797 4.10045 9.5943 3.62002 9.91871C2.65235 10.5532 1.62046 11.088 0.540772 11.5145C0.429043 11.5583 0.31508 11.6 0.198882 11.6394C0.140764 11.6604 0.0905725 11.6983 0.0550291 11.7481C0.0194857 11.7978 0.000287133 11.857 4.30867e-06 11.9178V12.457C-0.000254336 12.5045 0.0111352 12.5513 0.0332114 12.5936C0.0552875 12.6358 0.0874022 12.6723 0.126844 12.6998C0.166286 12.7273 0.211897 12.7451 0.259827 12.7517C0.307757 12.7582 0.356599 12.7534 0.402228 12.7376C0.587698 12.6718 0.773168 12.6039 0.956403 12.5316C2.10349 12.0862 3.20487 11.535 4.2457 10.8854C4.77157 10.5639 5.28031 10.2176 5.77192 9.84638C6.02666 9.65567 6.2747 9.4562 6.51826 9.25454C6.76183 9.05288 6.94283 8.89286 7.14842 8.70435C7.31824 8.54872 7.66237 8.26596 7.8456 8.09498C8.02884 7.92401 8.29252 7.74207 8.51598 7.56452C8.97341 7.22413 9.45014 6.90944 9.94387 6.62197C10.9267 6.05546 11.9678 5.59256 13.0499 5.24102C14.1132 4.89425 15.2057 4.64045 16.3147 4.4826L17.1414 4.37519C17.4185 4.34889 17.6956 4.33354 17.9705 4.30505L18.7995 4.2634C18.8598 4.2634 19.5682 4.2634 19.6285 4.2634L23.2195 4.29409C24.1468 4.29409 25.8764 4.31601 26.7948 4.32478C27.9866 4.33647 29.1858 4.34377 30.3925 4.3467C32.2472 4.3467 35.6996 4.36423 37.5543 4.36423C39.2153 4.36423 40.8756 4.36423 42.5352 4.36423C42.5961 4.36372 42.6555 4.34525 42.7056 4.31121C42.7557 4.27718 42.7942 4.22916 42.8161 4.17339C42.838 4.11761 42.8424 4.05666 42.8285 3.99844C42.8147 3.94023 42.7833 3.88744 42.7385 3.84692C41.5448 2.82023 40.1786 2.00442 38.7006 1.43575C38.6649 1.42259 38.3118 1.41383 38.2716 1.41383H37.5766C35.713 1.41383 32.2539 1.41383 30.3925 1.43355C29.2007 1.43355 28.003 1.44086 26.7993 1.45547L23.2396 1.46863L19.6442 1.49931C19.5704 1.49931 18.7503 1.53658 18.6744 1.54315C18.5984 1.54973 17.7805 1.62426 17.7135 1.63522C17.3939 1.67906 17.0766 1.73166 16.7616 1.78427C16.6923 1.79961 15.8901 1.9684 15.8208 1.98593C13.3533 2.61531 11.0436 3.73435 9.0344 5.2739C8.77295 5.46461 8.52491 5.65531 8.28582 5.85478Z" fill="#FFF6EB"/>
<path d="M42.4234 45.1548C42.4785 45.1197 42.5205 45.068 42.5431 45.0075C42.5657 44.947 42.5677 44.881 42.5488 44.8193C42.5299 44.7575 42.4912 44.7035 42.4384 44.6652C42.3856 44.6269 42.3215 44.6064 42.2559 44.6068L40.1598 44.6287C39.7956 44.6287 39.3464 44.655 38.9822 44.6835C38.618 44.712 38.1867 44.7537 37.8314 44.8019C37.4761 44.8501 37.0694 44.9159 36.694 44.9904C36.3186 45.0649 35.9141 45.1548 35.5767 45.2425C33.7085 45.7318 31.9192 46.4748 30.2606 47.4498C30.2037 47.4831 30.1595 47.5338 30.1349 47.5941C30.1103 47.6544 30.1066 47.721 30.1244 47.7836C30.1422 47.8462 30.1805 47.9013 30.2334 47.9404C30.2863 47.9795 30.3508 48.0005 30.4171 48H30.7455C35.6728 48.0044 39.5788 46.9807 42.4234 45.1548Z" fill="#FFF6EB"/>
<path d="M36.0773 12.1896C34.8192 12.1896 33.5634 12.1896 32.3075 12.2137L28.5378 12.2466L24.7658 12.2751C24.6183 12.2751 23.8876 12.3102 23.7424 12.3211C23.5971 12.3321 22.8754 12.4 22.7346 12.4198C22.3994 12.4658 22.0642 12.5206 21.7357 12.5798C21.595 12.6061 20.8866 12.7573 20.7503 12.799C18.1624 13.4704 15.7429 14.6567 13.6421 16.2842C13.3829 16.4837 13.1237 16.681 12.8734 16.8914C12.6231 17.1018 12.3729 17.3167 12.1315 17.5359C11.8902 17.755 11.6533 17.9742 11.4232 18.1934C11.2913 18.3206 10.8779 18.7349 10.7528 18.8642C10.5427 19.0724 10.3349 19.2829 10.1159 19.4823C9.89695 19.6818 9.66902 19.8878 9.43216 20.0807C8.96415 20.47 8.47639 20.8358 7.97074 21.1767C6.95649 21.8451 5.87349 22.4071 4.73955 22.8536C3.6061 23.2939 2.43091 23.6229 1.23126 23.8356C0.916186 23.8904 0.601111 23.9452 0.283801 23.9781L9.78608e-06 24.2718V24.7803C-0.000335692 24.8223 0.00846986 24.8638 0.0258347 24.9021C0.0431995 24.9404 0.0687213 24.9746 0.100685 25.0024C0.132648 25.0302 0.170313 25.051 0.211148 25.0634C0.251983 25.0757 0.295042 25.0794 0.337431 25.0741C0.706136 25.0302 1.07261 24.9732 1.43461 24.9075C2.70202 24.6747 3.94298 24.3201 5.13954 23.8488C6.34518 23.3797 7.50329 22.8006 8.59866 22.1193C9.14837 21.7832 9.6802 21.4178 10.1941 21.0233C10.4556 20.8326 10.7036 20.6287 10.9539 20.4249C11.2042 20.221 11.4433 20.004 11.6824 19.7892C11.8232 19.6643 12.241 19.307 12.3729 19.1908C12.5963 18.9935 12.8466 18.8182 13.0812 18.634C13.5624 18.2777 14.0638 17.9484 14.5829 17.6476C15.6219 17.0597 16.7215 16.5813 17.8632 16.2207C18.9824 15.8645 20.1307 15.6034 21.2955 15.4403C21.4162 15.425 22.0396 15.3439 22.1625 15.3329C22.453 15.3044 22.7435 15.2869 23.0318 15.2606C23.1547 15.2606 23.7781 15.2233 23.901 15.2211C24.0239 15.2189 24.6474 15.2211 24.7681 15.2211L28.5378 15.254C29.2596 15.254 31.579 15.2825 32.3031 15.2891C33.5604 15.3022 34.8184 15.3103 36.0773 15.3132C37.5208 15.3132 42.1575 15.3329 43.6011 15.3329H46.2356C46.3055 15.3333 46.3732 15.3099 46.4274 15.2667C46.4816 15.2235 46.5189 15.1633 46.5328 15.0962C46.6642 14.4244 46.7293 13.7417 46.7272 13.0576C46.7272 12.8582 46.7272 12.6609 46.7138 12.4636C46.7104 12.388 46.6773 12.3166 46.6215 12.2644C46.5658 12.2121 46.4916 12.183 46.4144 12.183H43.6167C42.1687 12.1677 37.5253 12.1808 36.0773 12.1896Z" fill="#FFF6EB"/>
<path d="M33.2438 6.79514C32.0163 6.79514 30.7895 6.80318 29.5635 6.81925L25.8831 6.85213L22.1983 6.88501C22.0888 6.88501 21.3045 6.92008 21.2039 6.92885C21.1033 6.93762 20.3257 7.00996 20.2185 7.02311C19.8922 7.06914 19.566 7.12175 19.2419 7.17874C19.1392 7.20066 18.3816 7.36067 18.2788 7.38698C15.7511 8.04077 13.3868 9.19557 11.3315 10.7802C11.079 10.9731 10.8243 11.1681 10.5785 11.372C10.3327 11.5759 10.0891 11.7819 9.85449 11.9945C9.61986 12.2071 9.38523 12.4198 9.16177 12.639C9.01205 12.7836 8.65005 13.1453 8.50704 13.2966C8.30369 13.4982 8.10034 13.7021 7.88806 13.8972C7.67578 14.0922 7.44114 14.2917 7.21769 14.4802C6.76103 14.8579 6.2852 15.2128 5.79203 15.5433C4.80266 16.1951 3.7467 16.7439 2.64127 17.1808C1.85433 17.485 1.04636 17.734 0.223461 17.926C0.159119 17.943 0.102303 17.9803 0.0618799 18.0323C0.0214566 18.0842 -0.000300637 18.1478 3.13829e-06 18.2132V18.7305C-0.000202249 18.7752 0.00994185 18.8194 0.0296721 18.8598C0.0494023 18.9001 0.0782048 18.9356 0.113912 18.9634C0.14962 18.9913 0.191302 19.0108 0.235822 19.0206C0.280343 19.0304 0.326542 19.0301 0.370943 19.0198C1.28441 18.8081 2.18068 18.5304 3.05244 18.1891C4.23054 17.7325 5.36184 17.1674 6.43112 16.5012C6.96741 16.1746 7.4903 15.8173 7.99532 15.4381C8.24783 15.2518 8.4914 15.0523 8.73496 14.8529C8.97853 14.6534 9.21316 14.443 9.44779 14.2325C9.60645 14.0879 9.96845 13.7788 10.1182 13.6473C10.3416 13.4544 10.5785 13.2856 10.8064 13.1037C11.276 12.7552 11.7654 12.4332 12.2723 12.1392C13.2825 11.565 14.3512 11.0963 15.461 10.7407C16.5538 10.3904 17.6752 10.133 18.8129 9.97132C18.9068 9.97132 19.5704 9.87488 19.662 9.86611C19.9436 9.83761 20.2274 9.82008 20.5112 9.79377C20.6028 9.79377 21.2665 9.75432 21.3581 9.75213C21.4497 9.74993 22.1156 9.75213 22.2072 9.75213L25.8876 9.78281L29.5635 9.81569C30.7925 9.82884 32.0207 9.83688 33.2483 9.8398C34.8974 9.8398 38.942 9.85953 40.5933 9.85953C42.381 9.85953 44.1761 9.85442 45.9787 9.84419C46.0246 9.84422 46.0699 9.83397 46.1111 9.81422C46.1524 9.79448 46.1885 9.76575 46.2168 9.73024C46.245 9.69472 46.2646 9.65335 46.2741 9.60928C46.2835 9.56521 46.2826 9.51961 46.2714 9.47594C46.0357 8.60343 45.6998 7.75997 45.2703 6.96173C45.2441 6.91447 45.2053 6.87504 45.1581 6.84764C45.1109 6.82024 45.057 6.80589 45.0021 6.8061H40.6112C38.9509 6.78199 34.8996 6.79514 33.2438 6.79514Z" fill="#FFF6EB"/>
<path d="M2.64254 48.0044H5.58548C6.89504 47.9983 8.20145 47.878 9.48929 47.6449C10.8741 47.3911 12.2298 47.0027 13.5361 46.4853C14.8502 45.9687 16.1135 45.3355 17.3103 44.5937C17.9062 44.2283 18.4864 43.833 19.051 43.4078C19.3371 43.2018 19.6052 42.9694 19.8823 42.7502C20.1594 42.531 20.4141 42.2921 20.6778 42.0597C20.7381 42.0049 21.3817 41.4548 21.4376 41.4021C21.6856 41.1829 21.9582 40.9966 22.2174 40.795C22.7474 40.4053 23.3003 40.0467 23.8733 39.7209C25.0152 39.0842 26.2236 38.5698 27.4776 38.1865C28.7045 37.8091 29.9619 37.5348 31.2362 37.3667C31.482 37.3338 31.9423 37.2768 32.1859 37.2549C32.5032 37.2242 32.8205 37.2023 33.1356 37.1804C33.3814 37.165 33.8417 37.1431 34.0853 37.1387C34.3288 37.1344 34.7892 37.1387 35.035 37.1387L39.1578 37.1804L43.2806 37.222C44.6571 37.2381 46.0328 37.2476 47.4078 37.2505H47.5151C47.5868 37.2511 47.6564 37.2268 47.7117 37.1819C47.7669 37.1369 47.8041 37.0743 47.8167 37.005C47.9675 36.1294 48.0422 35.2429 48.0402 34.3549C48.0402 34.2475 48.0402 34.1357 48.0402 34.0349C48.0379 33.9566 48.0042 33.8823 47.9465 33.8282C47.8888 33.7741 47.8117 33.7444 47.7318 33.7456H47.4145C46.041 33.7456 44.666 33.7551 43.2895 33.774L39.1645 33.8157L35.0372 33.8573C34.7445 33.8573 34.2015 33.8858 33.9199 33.9078C33.6384 33.9297 33.0998 33.9823 32.816 34.0217C32.4496 34.07 32.0853 34.1313 31.7233 34.1993C31.444 34.2541 30.9233 34.3681 30.6463 34.4404C27.7771 35.166 25.1559 36.5754 22.899 38.3071C22.6219 38.5263 22.3359 38.7455 22.0655 38.9647C21.7951 39.1839 21.5225 39.4206 21.261 39.6617C20.9996 39.9028 20.7404 40.1396 20.4901 40.3873C20.4342 40.4421 19.8197 41.069 19.7572 41.126C19.5337 41.3451 19.2968 41.5928 19.051 41.812C18.8052 42.0312 18.5639 42.2504 18.3069 42.4696C17.793 42.8905 17.2597 43.2872 16.707 43.6599C15.593 44.3969 14.401 45.0135 13.1518 45.499C11.9082 45.9792 10.6193 46.3375 9.30382 46.5686C8.97533 46.6234 8.64685 46.6848 8.3139 46.7199C7.98095 46.755 7.64353 46.8032 7.31728 46.8207C6.6469 46.8777 5.97653 46.8865 5.30616 46.8887H1.18113C1.118 46.8884 1.05636 46.9075 1.00489 46.9433C0.953427 46.9792 0.914728 47.03 0.894246 47.0886C0.873765 47.1472 0.872535 47.2106 0.890728 47.2699C0.908922 47.3292 0.945622 47.3814 0.99566 47.4191C1.46023 47.7932 2.0415 47.9998 2.64254 48.0044Z" fill="#FFF6EB"/>
</g>
<defs>
<clipPath id="clip0">
<rect width="48.0367" height="48" fill="white"/>
</clipPath>
</defs>
</svg>
